<svg width="1000" height="1000" viewBox="0 0 1000 1000" fill="none" xmlns="http://www.w3.org/2000/svg">
<rect width="1000" height="1000" fill="#2F2F2F"/>
<path d="M440.41 391.482L440.411 391.481C443.296 386.945 444.83 381.681 444.83 376.302V276.148C456.806 272.862 465.606 261.897 465.606 248.878C465.606 233.262 452.946 220.602 437.33 220.602H395.779C388.466 220.602 382.503 214.64 382.503 207.327C382.503 200.013 388.466 194.051 395.779 194.051H603.535C610.849 194.051 616.811 200.013 616.811 207.327C616.811 214.64 610.849 220.602 603.535 220.602H561.984C546.368 220.602 533.708 233.262 533.708 248.878C533.708 261.897 542.508 272.862 554.484 276.148V376.302C554.484 381.679 556.016 386.944 558.905 391.482C558.905 391.482 558.905 391.483 558.905 391.483L606.35 466.039C561.165 460.491 514.512 470.919 474.882 497.34L409.964 540.62C386.145 556.499 358.571 564.389 330.751 563.808L440.41 391.482ZM230.825 720.829L224.498 716.802L230.825 720.828L296.971 616.885C309.138 619.23 321.413 620.41 333.652 620.41C371.538 620.41 408.93 609.273 441.329 587.674L437.168 581.434L441.329 587.674L506.247 544.394C551.048 514.527 608.435 513.457 654.147 541.154L768.485 720.828L768.485 720.829C791.746 757.375 765.546 805.09 722.232 805.09H277.081C233.761 805.09 207.57 757.371 230.825 720.829ZM816.198 690.467L750.35 586.992C694.427 499.113 621.649 384.748 611.034 368.068V276.754C646.028 273.002 673.361 243.303 673.361 207.327C673.361 168.818 642.045 137.5 603.534 137.5H395.778C357.269 137.5 325.951 168.818 325.951 207.327C325.951 243.303 353.283 273.002 388.278 276.754V368.068L183.115 690.467C135.879 764.697 189.111 861.641 277.081 861.641H722.232C810.216 861.641 863.426 764.683 816.198 690.467Z" fill="#DEDEDE" stroke="#DEDEDE" stroke-width="15"/>
</svg>
