<svg id="maximize" xmlns="http://www.w3.org/2000/svg" width="19" height="19" viewBox="0 0 19 19">
  <path id="Path_11" data-name="Path 11" d="M17.969,7.5a.594.594,0,0,1,.42,1.014l-2.376,2.375a.594.594,0,0,1-.84-.84l2.376-2.376a.6.6,0,0,1,.42-.173Z" transform="translate(-3.124 -1.562)" fill="#fff"/>
  <path id="Path_12" data-name="Path 12" d="M10.292,12H1.583A1.583,1.583,0,0,0,0,13.583v6.334A1.583,1.583,0,0,0,1.583,21.5h8.709a1.583,1.583,0,0,0,1.583-1.583V13.583A1.583,1.583,0,0,0,10.292,12Zm-.4,7.917H1.979a.4.4,0,0,1-.4-.4V15.167h8.709v4.354A.4.4,0,0,1,9.9,19.917Z" transform="translate(0 -2.5)" fill="#fff"/>
  <path id="Path_13" data-name="Path 13" d="M16.626,0H2.375A2.378,2.378,0,0,0,0,2.375V9.326a2.36,2.36,0,0,1,1.583-.618V3.958H17.417V15.042a.792.792,0,0,1-.792.792H12.667v1.583h3.958A2.378,2.378,0,0,0,19,15.042V2.375A2.378,2.378,0,0,0,16.626,0Z" fill="#fff"/>
  <path id="Path_14" data-name="Path 14" d="M18.573,10.167a.591.591,0,0,1-.42-.174L16.174,8.013A.593.593,0,0,1,16.594,7h1.979a.594.594,0,0,1,.594.594V9.573a.594.594,0,0,1-.594.594Z" transform="translate(-3.333 -1.458)" fill="#fff"/>
</svg>
