<svg xmlns="http://www.w3.org/2000/svg" width="203.001" height="224.994" viewBox="0 0 203.001 224.994">
  <path id="app" d="M201.539,91.023,48,3.26A24.733,24.733,0,0,0,11,24.733V200.26A24.731,24.731,0,0,0,48,221.733l153.535-87.764a24.734,24.734,0,0,0,0-42.946ZM135.006,70.271,113.925,99.635,63.5,29.4ZM34.76,209.908a9.649,9.649,0,0,1-3.917-1.23,9.763,9.763,0,0,1-4.848-8.418V24.732a9.689,9.689,0,0,1,8.751-9.668L104.692,112.5ZM63.5,195.6l50.425-70.239,21.081,29.364Zm130.594-74.651-46,26.292L123.157,112.5,148.1,77.755l46,26.292a9.731,9.731,0,0,1,0,16.9Z" transform="translate(-10.995)" fill="#fff"/>
</svg>
