<svg xmlns="http://www.w3.org/2000/svg" width="24" height="19.001" viewBox="0 0 24 19.001">
  <g id="github" transform="translate(0 -2.499)">
    <path id="Path_8" data-name="Path 8" d="M12.29,21.5c3.73,0,8.94.09,10.835-3.7A10.622,10.622,0,0,0,24,13.1h0a8.472,8.472,0,0,0-1.95-5.651,7.558,7.558,0,0,0,.385-2.385A4.843,4.843,0,0,0,21.7,2.5a7.777,7.777,0,0,0-5.39,1.742,17.46,17.46,0,0,0-4.02-.455,19.361,19.361,0,0,0-4.435.495A7.865,7.865,0,0,0,2.419,2.5,4.9,4.9,0,0,0,1.69,5.063a7.671,7.671,0,0,0,.385,2.414A8.458,8.458,0,0,0,0,13.1a10.515,10.515,0,0,0,1.01,4.7c1.97,3.835,7.49,3.7,11.28,3.7ZM7,11.509a20.375,20.375,0,0,1,2.8.3c3.418.52,5.215-.3,7.31-.3,2.339,0,3.675,1.915,3.675,4.087,0,4.349-4.015,5.012-7.53,5.012h-2.41c-3.5,0-7.52-.667-7.52-5.012,0-2.172,1.334-4.087,3.675-4.087Z" fill="#fff"/>
    <path id="Path_9" data-name="Path 9" d="M16.655,18.323c1.29,0,1.835-1.692,1.835-2.727s-.545-2.727-1.835-2.727S14.82,14.561,14.82,15.6s.545,2.727,1.835,2.727Z" fill="#fff"/>
    <path id="Path_10" data-name="Path 10" d="M7.47,18.323c1.29,0,1.835-1.692,1.835-2.727S8.759,12.87,7.47,12.87,5.635,14.562,5.635,15.6s.545,2.726,1.835,2.726Z" fill="#fff"/>
  </g>
</svg>
