<svg id="linkedin" xmlns="http://www.w3.org/2000/svg" width="500" height="500" viewBox="0 0 500 500">
  <path id="Path_1" data-name="Path 1" d="M318.589,336.094v-.02h.12V160.034c0-86.12-18.54-152.46-119.22-152.46-48.4,0-80.88,26.56-94.14,51.74h-1.4v-43.7H8.489v320.46h99.4V177.394c0-41.78,7.92-82.18,59.66-82.18,50.98,0,51.74,47.68,51.74,84.86v156.02Z" transform="translate(181.291 163.906)" fill="#007bb5"/>
  <path id="Path_2" data-name="Path 2" d="M.4,7.977h99.52v320.46H.4Z" transform="translate(7.524 171.563)" fill="#007bb5"/>
  <path id="Path_3" data-name="Path 3" d="M57.64,0A57.658,57.658,0,0,0,0,57.64c0,31.82,25.82,58.18,57.64,58.18s57.64-26.36,57.64-58.18A57.683,57.683,0,0,0,57.64,0Z" fill="#007bb5"/>
</svg>
