<svg xmlns="http://www.w3.org/2000/svg" width="500" height="406.25" viewBox="0 0 500 406.25">
  <path id="twitter" d="M500,96.094a213.713,213.713,0,0,1-59.062,16.188,101.929,101.929,0,0,0,45.094-56.656,204.849,204.849,0,0,1-65,24.812,102.5,102.5,0,0,0-177.312,70.094,105.547,105.547,0,0,0,2.375,23.375c-85.219-4.156-160.625-45-211.281-107.219a102.532,102.532,0,0,0,31.5,137A101.23,101.23,0,0,1,20,191.063v1.125a102.976,102.976,0,0,0,82.125,100.719,102.307,102.307,0,0,1-26.875,3.375,90.632,90.632,0,0,1-19.406-1.75c13.281,40.594,50.969,70.438,95.781,71.406A205.964,205.964,0,0,1,24.531,409.656,191.992,191.992,0,0,1,0,408.25a288.577,288.577,0,0,0,157.25,46C345.875,454.25,449,298,449,162.563c0-4.531-.156-8.906-.375-13.25A204.49,204.49,0,0,0,500,96.094Z" transform="translate(0 -48)" fill="#03a9f4"/>
</svg>
